<svg width="39" height="40" viewBox="0 0 39 40" fill="none" xmlns="http://www.w3.org/2000/svg">
<path d="M19.5 6.66669C21.2239 6.66669 22.8772 7.36907 24.0962 8.61931C25.3152 9.86955 26 11.5652 26 13.3334C26 15.1015 25.3152 16.7972 24.0962 18.0474C22.8772 19.2976 21.2239 20 19.5 20C17.7761 20 16.1228 19.2976 14.9038 18.0474C13.6848 16.7972 13 15.1015 13 13.3334C13 11.5652 13.6848 9.86955 14.9038 8.61931C16.1228 7.36907 17.7761 6.66669 19.5 6.66669ZM19.5 10C18.638 10 17.8114 10.3512 17.2019 10.9763C16.5924 11.6015 16.25 12.4493 16.25 13.3334C16.25 14.2174 16.5924 15.0653 17.2019 15.6904C17.8114 16.3155 18.638 16.6667 19.5 16.6667C20.362 16.6667 21.1886 16.3155 21.7981 15.6904C22.4076 15.0653 22.75 14.2174 22.75 13.3334C22.75 12.4493 22.4076 11.6015 21.7981 10.9763C21.1886 10.3512 20.362 10 19.5 10ZM19.5 21.6667C23.8388 21.6667 32.5 23.8834 32.5 28.3334V33.3334H6.5V28.3334C6.5 23.8834 15.1612 21.6667 19.5 21.6667ZM19.5 24.8334C14.6737 24.8334 9.5875 27.2667 9.5875 28.3334V30.1667H29.4125V28.3334C29.4125 27.2667 24.3263 24.8334 19.5 24.8334Z" fill="#D0CCCC"/>
</svg>
