<svg width="39" height="40" viewBox="0 0 39 40" fill="none" xmlns="http://www.w3.org/2000/svg">
<path d="M19.5 28.3334C20.362 28.3334 21.1886 27.9822 21.7981 27.357C22.4076 26.7319 22.75 25.8841 22.75 25C22.75 24.116 22.4076 23.2681 21.7981 22.643C21.1886 22.0179 20.362 21.6667 19.5 21.6667C18.638 21.6667 17.8114 22.0179 17.2019 22.643C16.5924 23.2681 16.25 24.116 16.25 25C16.25 25.8841 16.5924 26.7319 17.2019 27.357C17.8114 27.9822 18.638 28.3334 19.5 28.3334ZM29.25 13.3334C30.112 13.3334 30.9386 13.6845 31.5481 14.3097C32.1576 14.9348 32.5 15.7826 32.5 16.6667V33.3334C32.5 34.2174 32.1576 35.0653 31.5481 35.6904C30.9386 36.3155 30.112 36.6667 29.25 36.6667H9.75C8.88805 36.6667 8.0614 36.3155 7.4519 35.6904C6.84241 35.0653 6.5 34.2174 6.5 33.3334V16.6667C6.5 15.7826 6.84241 14.9348 7.4519 14.3097C8.0614 13.6845 8.88805 13.3334 9.75 13.3334H11.375V10C11.375 7.78988 12.231 5.67027 13.7548 4.10746C15.2785 2.54466 17.3451 1.66669 19.5 1.66669C20.567 1.66669 21.6235 1.88224 22.6093 2.30102C23.5951 2.71981 24.4908 3.33364 25.2452 4.10746C25.9997 4.88129 26.5982 5.79994 27.0065 6.81099C27.4148 7.82204 27.625 8.90567 27.625 10V13.3334H29.25ZM19.5 5.00002C18.2071 5.00002 16.9671 5.5268 16.0529 6.46449C15.1386 7.40217 14.625 8.67394 14.625 10V13.3334H24.375V10C24.375 8.67394 23.8614 7.40217 22.9471 6.46449C22.0329 5.5268 20.7929 5.00002 19.5 5.00002Z" fill="#B6B6B6"/>
</svg>
