<svg width="1920" height="356" viewBox="0 0 1920 356" fill="none" xmlns="http://www.w3.org/2000/svg">
<g filter="url(#filter0_d_75_257)">
<path fill-rule="evenodd" clip-rule="evenodd" d="M1034.43 4.35916C1306.1 13.5183 1396.83 151.469 1644.47 185.984C1927.5 225.431 2398.76 106.882 2553.53 216.08C2702.72 321.337 2427.86 498.987 2291.98 642.822C2175.52 766.095 2071.67 904.115 1825.61 986.62C1591.25 1065.2 1327.66 1027.36 1068.47 1053.06C836.265 1076.09 593.528 1151.56 388.034 1129.17C171.649 1105.6 73.142 1011.27 -45.7572 931.68C-192.876 833.196 -388.409 746.527 -384.063 612.317C-378.891 452.621 -316.846 257.189 -19.7919 129.874C276.967 2.68476 695.452 -7.06951 1034.43 4.35916Z" fill="url(#paint0_linear_75_257)"/>
</g>
<defs>
<filter id="filter0_d_75_257" x="-388.134" y="0.79895" width="2988.81" height="1140.48" filterUnits="userSpaceOnUse" color-interpolation-filters="sRGB">
<feFlood flood-opacity="0" result="BackgroundImageFix"/>
<feColorMatrix in="SourceAlpha" type="matrix" values="0 0 0 0 0 0 0 0 0 0 0 0 0 0 0 0 0 0 127 0" result="hardAlpha"/>
<feOffset dy="4"/>
<feGaussianBlur stdDeviation="2"/>
<feComposite in2="hardAlpha" operator="out"/>
<feColorMatrix type="matrix" values="0 0 0 0 0 0 0 0 0 0 0 0 0 0 0 0 0 0 0.25 0"/>
<feBlend mode="normal" in2="BackgroundImageFix" result="effect1_dropShadow_75_257"/>
<feBlend mode="normal" in="SourceGraphic" in2="effect1_dropShadow_75_257" result="shape"/>
</filter>
<linearGradient id="paint0_linear_75_257" x1="-115.274" y1="303.773" x2="790.821" y2="1146.73" gradientUnits="userSpaceOnUse">
<stop stop-color="#31737C"/>
<stop offset="1" stop-color="#44917E"/>
</linearGradient>
</defs>
</svg>
